<svg width="64" height="64" viewBox="0 0 64 64" fill="none" xmlns="http://www.w3.org/2000/svg">
<circle cx="32" cy="32" r="32" fill="#111111"/>
<path d="M23.2929 40.2929C22.9024 40.6834 22.9024 41.3166 23.2929 41.7071C23.6834 42.0976 24.3166 42.0976 24.7071 41.7071L23.2929 40.2929ZM42 24C42 23.4477 41.5523 23 41 23L32 23C31.4477 23 31 23.4477 31 24C31 24.5523 31.4477 25 32 25L40 25L40 33C40 33.5523 40.4477 34 41 34C41.5523 34 42 33.5523 42 33L42 24ZM24.7071 41.7071L41.7071 24.7071L40.2929 23.2929L23.2929 40.2929L24.7071 41.7071Z" fill="white"/>
</svg>
