<svg width="30" height="61" viewBox="0 0 30 61" fill="none" xmlns="http://www.w3.org/2000/svg">
<path d="M17 2C17 0.89543 16.1046 -4.82823e-08 15 0C13.8954 4.82823e-08 13 0.895431 13 2L17 2ZM13.5858 60.4142C14.3668 61.1953 15.6332 61.1953 16.4142 60.4142L29.1421 47.6863C29.9232 46.9052 29.9232 45.6389 29.1421 44.8579C28.3611 44.0768 27.0948 44.0768 26.3137 44.8579L15 56.1716L3.68629 44.8579C2.90524 44.0768 1.63891 44.0768 0.857866 44.8579C0.0768177 45.6389 0.0768178 46.9052 0.857866 47.6863L13.5858 60.4142ZM13 2L13 59L17 59L17 2L13 2Z" fill="black"/>
</svg>
